<svg width="36" height="36" viewBox="0 0 36 36" fill="none" xmlns="http://www.w3.org/2000/svg">
<path d="M12 9V7.8C12 5.145 12 3 16.8 3H19.2C24 3 24 5.145 24 7.8V9M12 33H24C30.03 33 31.11 30.585 31.425 27.645L32.55 15.645C32.955 11.985 31.905 9 25.5 9H10.5C4.095 9 3.045 11.985 3.45 15.645L4.575 27.645C4.89 30.585 5.97 33 12 33Z" stroke="#344054" stroke-width="2" stroke-miterlimit="10" stroke-linecap="round" stroke-linejoin="round"/>
<path d="M21 21.03V19.5C21 18 21 18 19.5 18H16.5C15 18 15 18 15 19.5V21.045M21 21.03C21 22.665 20.985 24 18 24C15.03 24 15 22.68 15 21.045M21 21.03C25.1463 20.5138 29.0942 18.9553 32.475 16.5M15 21.045C11.115 20.61 7.30499 19.215 3.92999 16.905" stroke="#3366FF" stroke-width="2" stroke-miterlimit="10" stroke-linecap="round" stroke-linejoin="round"/>
</svg>
