<svg width="38" height="38" viewBox="0 0 38 38" fill="none" xmlns="http://www.w3.org/2000/svg">
<path d="M22.1667 25.3335C22.1667 28.136 20.9475 30.6693 19 32.3952C17.2668 33.9692 15.008 34.8388 12.6667 34.8335C7.42585 34.8335 3.16669 30.5743 3.16669 25.3335C3.16669 20.9635 6.14335 17.2585 10.165 16.166C10.7101 17.5365 11.5658 18.7617 12.6648 19.7453C13.7638 20.7289 15.0761 21.444 16.4984 21.8343C17.29 22.056 18.1292 22.1668 19 22.1668C19.8709 22.1668 20.71 22.056 21.5017 21.8343C21.9292 22.911 22.1667 24.0985 22.1667 25.3335Z" stroke="#0F1E4C" stroke-width="2" stroke-linecap="round" stroke-linejoin="round"/>
<path d="M28.5 12.667C28.5025 14.7516 27.8184 16.779 26.5535 18.436C25.2886 20.093 23.5132 21.2873 21.5017 21.8345C20.71 22.0562 19.8708 22.167 19 22.167C18.1292 22.167 17.29 22.0562 16.4983 21.8345C14.4868 21.2873 12.7114 20.093 11.4465 18.436C10.1816 16.779 9.49753 14.7516 9.50001 12.667C9.50001 7.42616 13.7592 3.16699 19 3.16699C24.2408 3.16699 28.5 7.42616 28.5 12.667Z" stroke="#7093FF" stroke-width="2" stroke-linecap="round" stroke-linejoin="round"/>
<path d="M34.8333 25.3335C34.8333 30.5743 30.5742 34.8335 25.3333 34.8335C22.992 34.8388 20.7333 33.9692 19 32.3952C20.9475 30.6693 22.1667 28.136 22.1667 25.3335C22.1667 24.0985 21.9292 22.911 21.5017 21.8343C24.3992 21.0427 26.7425 18.921 27.835 16.166C31.8567 17.2585 34.8333 20.9635 34.8333 25.3335Z" stroke="#3366FF" stroke-width="2" stroke-linecap="round" stroke-linejoin="round"/>
</svg>
