<svg width="723" height="677" viewBox="0 0 723 677" fill="none" xmlns="http://www.w3.org/2000/svg">
<g clip-path="url(#clip0_806_16880)">
<path d="M190.552 403.718C226.562 403.718 255.753 374.527 255.753 338.517C255.753 302.508 226.562 273.316 190.552 273.316C154.543 273.316 125.352 302.508 125.352 338.517C125.352 374.527 154.543 403.718 190.552 403.718Z" fill="#05A6F6"/>
<path d="M152.456 409.592C127.058 395.945 110 369.221 110 338.516" stroke="#8182EE" stroke-width="2" stroke-miterlimit="10" stroke-linecap="round" stroke-linejoin="round"/>
<path d="M190.553 392.536C220.387 392.536 244.572 368.352 244.572 338.518C244.572 308.685 220.387 284.5 190.553 284.5C160.72 284.5 136.535 308.685 136.535 338.518C136.535 368.352 160.72 392.536 190.553 392.536Z" fill="url(#paint0_linear_806_16880)"/>
<path d="M189.796 346.478C189.417 346.478 189.227 346.478 188.848 346.289C187.901 345.91 187.332 345.151 187.332 344.204V301.368C187.332 300.041 188.28 299.094 189.606 299.094C190.933 299.094 191.881 300.041 191.881 301.368V338.518L207.613 322.786C208.56 321.838 209.887 321.838 210.835 322.786C211.782 323.734 211.782 325.06 210.835 326.008L191.123 345.72C190.933 346.099 190.365 346.478 189.796 346.478Z" fill="#05A6F6"/>
<path d="M517.316 287.345H396.012C390.136 287.345 385.777 281.658 387.483 275.972L407.005 206.222C409.09 198.641 415.914 193.523 423.874 193.523H544.989C550.864 193.523 555.224 199.21 553.518 204.896L533.995 274.835C531.911 282.037 525.087 287.345 517.316 287.345Z" fill="#DEDFFF"/>
<path d="M524.14 292.649H402.836C396.961 292.649 392.601 286.963 394.307 281.277L413.83 211.527C415.914 203.946 422.738 198.828 430.698 198.828H551.813C557.689 198.828 562.048 204.514 560.342 210.2L540.82 280.14C538.735 287.532 531.911 292.649 524.14 292.649Z" stroke="#DEDFFF" stroke-miterlimit="10"/>
<path d="M502.912 275.97H481.305C479.789 275.97 478.651 274.454 479.031 272.937L498.174 204.514C498.363 203.756 499.121 203.188 500.069 203.188H527.363L508.219 271.99C507.272 274.264 505.187 275.97 502.912 275.97Z" stroke="#05A6F6" stroke-miterlimit="10"/>
<path d="M440.931 225.742H418.756C417.618 225.742 416.86 224.794 417.239 223.657L420.84 210.958C421.22 209.631 422.546 208.684 423.873 208.684H446.049C447.186 208.684 447.944 209.631 447.565 210.769L443.964 223.468C443.585 224.794 442.258 225.742 440.931 225.742Z" fill="#8C9BC8"/>
<path d="M474.103 225.742H451.927C450.79 225.742 450.032 224.794 450.411 223.657L454.012 210.958C454.391 209.631 455.718 208.684 457.045 208.684H479.221C480.358 208.684 481.116 209.631 480.737 210.769L477.136 223.468C476.757 224.794 475.43 225.742 474.103 225.742Z" fill="#05A6F6"/>
<path d="M468.224 247.73H446.049C444.911 247.73 444.153 246.783 444.532 245.645L448.133 232.946C448.512 231.62 449.839 230.672 451.166 230.672H473.342C474.479 230.672 475.237 231.62 474.858 232.757L471.257 245.456C470.878 246.783 469.741 247.73 468.224 247.73Z" fill="#05A6F6"/>
<path d="M309.393 200.531C309.393 200.531 313.374 207.165 312.805 210.008C312.236 212.851 307.688 212.093 307.688 212.093L309.393 200.531Z" fill="#EC7C68"/>
<path d="M306.74 181.012C306.74 181.012 310.341 186.129 310.341 191.057C310.341 195.985 312.237 219.867 309.014 222.71C305.792 225.553 292.904 222.331 292.904 222.331C292.904 222.331 286.839 220.625 284.185 211.717C281.532 202.619 289.303 186.887 289.303 186.887L306.74 181.012Z" fill="#FBA181"/>
<path d="M299.157 221.193C299.157 221.193 297.641 229.154 302 236.167C302 236.167 287.595 235.029 279.445 235.788C279.445 235.788 281.151 222.141 280.962 217.971C280.583 213.801 293.85 216.834 299.157 221.193Z" fill="#FBA181"/>
<path d="M275.467 177.599C275.467 177.599 282.859 171.723 290.82 172.482C298.78 173.429 305.793 176.462 308.447 175.514C311.1 174.567 308.067 182.527 304.466 183.664C300.865 184.802 302.571 192.952 301.623 195.984C300.675 199.017 300.296 198.448 299.917 200.344C299.538 202.239 300.865 205.082 300.865 206.409C300.865 207.736 298.591 207.736 298.591 207.736C298.591 207.736 297.074 202.618 295.937 202.429C294.8 202.239 292.904 201.86 291.388 206.03C289.872 210.2 292.904 215.317 293.094 217.592C293.284 220.056 291.199 222.14 287.976 222.899C284.754 223.657 279.637 223.657 276.983 222.14C274.33 220.624 274.709 217.592 272.624 214.559C270.349 211.526 266.18 208.683 265.232 199.017C264.095 189.35 270.349 187.266 270.349 187.266C270.349 187.266 270.349 179.494 275.467 177.599Z" fill="#023C5D"/>
<path d="M297.452 204.894C297.452 204.894 297.073 198.829 294.23 200.345C291.387 201.861 292.145 211.149 295.367 211.907C298.589 212.854 297.831 206.221 297.452 204.894Z" fill="#EC7C68"/>
<path d="M416.861 239.198C416.861 239.198 414.966 232.564 415.914 230.858C416.861 229.153 421.6 228.773 421.6 228.773C421.6 228.773 420.652 236.355 416.861 239.198Z" fill="#EC7C68"/>
<path d="M407.008 246.589L416.295 238.25C416.295 238.25 420.655 220.812 429.563 212.473C431.458 213.041 432.406 215.316 431.269 217.022C429.373 220.054 426.909 224.224 426.53 227.067C426.53 227.067 435.628 228.962 439.04 232.753C440.556 235.217 439.04 242.609 438.471 243.936C437.902 245.263 434.68 245.263 434.68 245.263C434.68 245.263 432.595 250.191 430.7 251.707C428.805 253.223 421.602 252.655 421.602 252.655L417.811 257.962C418.001 257.772 408.903 254.74 407.008 246.589Z" fill="#FBA181"/>
<path d="M259.167 238.061C259.167 238.061 250.638 239.387 250.069 256.825C249.501 274.262 244.004 300.229 244.004 315.013C244.004 329.797 262.01 377.181 266.748 380.593C266.748 380.593 272.055 378.508 277.363 375.286C277.363 375.286 272.624 343.823 270.729 329.797C268.644 315.771 272.814 272.367 275.467 264.217C278.121 256.067 280.395 234.838 259.167 238.061Z" fill="#0487C8"/>
<path d="M334.034 569.184C334.982 568.615 335.55 567.857 335.171 566.909C334.034 564.066 327.4 563.118 322.851 561.792C318.302 560.465 315.459 557.243 315.459 557.243C315.459 557.243 315.459 557.243 313.943 554.968C312.427 552.694 310.342 553.262 310.342 553.262C310.342 553.262 298.022 554.589 296.316 554.779C294.61 554.968 294.421 558.38 293.473 561.981C292.715 564.635 292.525 567.667 293.852 569.184H334.034V569.184Z" fill="#0487C8"/>
<path d="M294.23 540.373C294.23 540.373 296.315 548.334 295.557 554.778C295.178 559.137 301.622 558.379 306.171 558.19C310.91 557.81 312.237 556.863 312.237 555.536C312.237 554.209 307.498 550.798 307.309 543.785C307.119 536.582 299.917 536.961 294.23 540.373Z" fill="#FBA181"/>
<path d="M336.119 538.477C336.119 538.477 333.845 545.679 334.793 549.091C335.74 552.692 341.047 554.967 337.446 556.294C333.845 557.62 323.61 555.346 319.63 552.313C316.597 549.281 321.335 547.385 322.283 545.111C323.231 542.836 323.989 532.98 323.989 532.98L336.119 538.477Z" fill="#FBA181"/>
<path d="M308.446 354.815C308.446 354.815 310.531 363.344 310.342 371.873C310.152 376.422 311.479 535.823 312.048 543.026C312.806 547.574 295.558 548.901 291.198 546.058C291.198 546.058 287.218 509.288 283.617 488.628C280.016 467.969 276.225 424.944 272.434 410.539C268.454 396.134 261.441 373.579 261.251 355.762C261.062 355.762 279.068 329.606 308.446 354.815Z" fill="#024470"/>
<path d="M330.811 353.109L337.066 364.671C337.066 364.671 364.738 430.63 369.098 451.1C373.646 471.57 338.772 542.078 338.772 542.078C338.772 542.078 319.818 541.32 321.903 533.17C322.85 529.569 338.772 456.407 338.772 456.407C338.772 456.407 312.047 409.971 307.498 402.01C302.949 394.049 284.374 386.847 277.172 361.07L330.811 353.109Z" fill="#023C5D"/>
<path d="M276.417 227.826C283.24 227.068 296.128 226.12 303.331 229.532L308.638 234.27L270.73 235.976L271.299 232.754C271.868 230.1 273.763 228.015 276.417 227.826Z" fill="#0487C8"/>
<path d="M334.983 351.023C331.95 354.435 331.95 359.553 327.401 360.311C314.323 362.585 288.167 364.67 266.181 362.206C261.253 361.638 257.652 357.278 258.031 352.35C259.357 338.704 261.632 312.737 261.253 307.43C260.495 300.038 254.619 264.594 253.292 253.98C251.965 243.366 259.357 237.87 259.357 237.87L269.972 233.889L299.35 232.562C299.35 232.562 316.787 232.563 324.179 238.628C331.571 244.693 334.225 257.392 334.225 267.437C334.225 267.437 337.068 285.823 337.068 301.365C337.068 316.907 339.911 345.337 334.983 351.023Z" fill="#0487C8"/>
<path d="M315.27 561.222C316.407 564.066 324.368 567.667 330.054 569.183H359.243C360.19 568.046 360.57 566.719 359.053 566.53C356.4 566.53 346.923 562.549 344.269 560.654C341.616 558.948 341.616 554.399 338.015 553.072C324.178 555.726 319.25 548.523 319.25 548.523C316.976 552.125 317.545 553.831 317.545 553.831C317.545 553.831 313.943 558 315.27 561.222Z" fill="#0487C8"/>
<path d="M330.056 569.182H336.689C335.742 568.613 334.794 567.855 334.036 567.097C328.35 560.653 320.579 558.757 316.409 559.326C315.84 559.326 315.272 559.515 315.082 559.705C315.082 560.084 315.272 560.653 315.272 561.032C316.409 564.064 324.369 567.666 330.056 569.182Z" fill="#6F439C"/>
<path d="M313.564 267.438C313.564 267.438 360.948 292.268 373.837 295.49C381.797 297.575 422.737 253.981 422.737 253.981C422.737 253.981 422.169 239.576 409.47 241.661L374.405 268.197C374.405 268.197 346.922 252.844 339.72 248.864C332.328 244.884 320.387 233.511 315.649 235.407C310.91 237.492 295.558 253.413 313.564 267.438Z" fill="#0487C8"/>
<path d="M260.305 270.281C260.305 270.281 262.958 308.757 263.337 315.581C263.716 322.594 261.063 355.573 261.063 355.573" stroke="#694D98" stroke-miterlimit="10"/>
<path d="M207.611 431.39H149.234C147.338 431.39 146.012 429.873 146.012 428.167C146.012 426.272 147.528 424.945 149.234 424.945H207.611C209.507 424.945 210.834 426.462 210.834 428.167C211.023 429.873 209.507 431.39 207.611 431.39Z" fill="#05A6F6"/>
<path d="M171.031 444.847H149.234C147.338 444.847 146.012 443.33 146.012 441.624C146.012 439.729 147.528 438.402 149.234 438.402H170.841C172.737 438.402 174.063 439.919 174.063 441.624C174.253 443.33 172.737 444.847 171.031 444.847Z" fill="#05A6F6"/>
<path d="M540.061 323.546H481.683C479.788 323.546 478.461 322.03 478.461 320.324C478.461 318.428 479.977 317.102 481.683 317.102H540.061C541.956 317.102 543.283 318.618 543.283 320.324C543.283 322.03 541.766 323.546 540.061 323.546Z" fill="#05A6F6"/>
<path d="M503.29 336.815H481.683C479.788 336.815 478.461 335.299 478.461 333.593C478.461 331.698 479.977 330.371 481.683 330.371H503.29C505.186 330.371 506.513 331.887 506.513 333.593C506.513 335.489 505.186 336.815 503.29 336.815Z" fill="#05A6F6"/>
<path d="M551.623 436.696H400.941C397.15 436.696 394.117 433.664 394.117 429.873V401.632C394.117 397.841 397.15 394.809 400.941 394.809H551.623C555.414 394.809 558.446 397.841 558.446 401.632V429.873C558.446 433.474 555.414 436.696 551.623 436.696Z" fill="#DEDFFF"/>
<path d="M534.186 412.058H421.601C419.706 412.058 418.379 410.541 418.379 408.835C418.379 406.94 419.895 405.613 421.601 405.613H534.186C536.082 405.613 537.409 407.13 537.409 408.835C537.409 410.541 535.892 412.058 534.186 412.058Z" fill="#05A6F6"/>
<path d="M443.208 425.323H421.601C419.706 425.323 418.379 423.807 418.379 422.101C418.379 420.206 419.895 418.879 421.601 418.879H443.208C445.104 418.879 446.43 420.395 446.43 422.101C446.62 423.996 445.104 425.323 443.208 425.323Z" fill="#05A6F6"/>
<path d="M431.834 378.132C450.99 378.132 466.519 362.603 466.519 343.447C466.519 324.291 450.99 308.762 431.834 308.762C412.678 308.762 397.148 324.291 397.148 343.447C397.148 362.603 412.678 378.132 431.834 378.132Z" fill="#DEDFFF"/>
<path d="M431.832 302.316C454.577 302.316 472.962 320.702 472.962 343.446C472.962 366.191 454.577 384.576 431.832 384.576" stroke="#05A6F6" stroke-miterlimit="10"/>
<path d="M440.173 352.354C441.121 351.596 441.69 351.028 442.069 350.459C442.637 349.132 443.206 347.426 443.775 345.341C444.154 345.721 444.533 345.91 445.101 345.91C446.428 345.91 450.029 338.518 448.134 337.002C447.186 336.054 446.049 336.812 445.291 337.76C445.859 334.538 446.239 332.074 446.239 332.074C446.239 331.695 446.239 331.316 446.239 330.747C446.239 322.218 439.415 315.395 430.886 315.395C422.357 315.395 415.533 322.218 415.533 330.747C415.533 331.126 415.533 331.505 415.533 332.074C415.533 332.074 415.912 334.538 416.481 337.76C415.723 336.812 414.775 336.054 413.638 337.002C411.932 338.708 415.344 345.91 416.671 345.91C417.239 345.91 417.618 345.721 417.997 345.341C418.566 347.237 419.135 349.132 419.703 350.459C420.082 351.217 421.03 351.975 422.357 352.923C421.978 355.576 421.22 358.799 419.324 360.504C416.86 362.779 410.795 364.674 406.246 366.759C412.501 373.772 421.788 378.131 432.023 378.131C442.069 378.131 450.977 373.962 457.421 367.138C452.683 364.864 446.239 362.968 443.395 360.504C441.311 358.609 440.552 355.197 440.173 352.354Z" fill="#8C9BC8"/>
<path d="M189.169 217.205H178.365C176.28 217.205 174.574 215.5 174.574 213.415V202.611C174.574 200.526 176.28 198.82 178.365 198.82H189.169C191.254 198.82 192.959 200.526 192.959 202.611V213.225C192.959 215.5 191.254 217.205 189.169 217.205Z" fill="#05A6F6"/>
<path d="M575.692 291.135H564.888C562.803 291.135 561.098 289.429 561.098 287.344V276.541C561.098 274.456 562.803 272.75 564.888 272.75H575.692C577.777 272.75 579.483 274.456 579.483 276.541V287.344C579.672 289.429 577.966 291.135 575.692 291.135Z" fill="#05A6F6"/>
<path d="M254.997 481.998H244.193C242.108 481.998 240.402 480.293 240.402 478.208V467.404C240.402 465.319 242.108 463.613 244.193 463.613H254.997C257.082 463.613 258.787 465.319 258.787 467.404V478.208C258.787 480.103 257.082 481.998 254.997 481.998Z" fill="#05A6F6"/>
<path d="M233.01 499.247H226.187C224.86 499.247 223.723 498.11 223.723 496.783V489.96C223.723 488.633 224.86 487.496 226.187 487.496H233.01C234.337 487.496 235.474 488.633 235.474 489.96V496.783C235.284 498.11 234.337 499.247 233.01 499.247Z" fill="#05A6F6"/>
<path d="M213.43 242.983H202.627C200.542 242.983 198.836 241.277 198.836 239.192V228.388C198.836 226.303 200.542 224.598 202.627 224.598H213.43C215.515 224.598 217.221 226.303 217.221 228.388V239.192C217.221 241.277 215.515 242.983 213.43 242.983Z" fill="#05A6F6"/>
<path d="M445.103 145H398.098V154.287H445.103V145Z" stroke="#05A6F6" stroke-miterlimit="10"/>
<path d="M411.555 162.629H398.098V171.916H411.555V162.629Z" stroke="#05A6F6" stroke-miterlimit="10"/>
</g>
<path d="M257.319 675C203.347 675 153.475 645.747 126.407 598.248L22.4297 415.793C-4.80975 367.994 -4.81 309.006 22.4297 261.207L126.407 78.7524C153.475 31.2535 203.347 2 257.319 2L465.681 2C519.653 2 569.525 31.2535 596.593 78.7524L700.57 261.207C727.81 309.006 727.81 367.994 700.57 415.793L596.593 598.248C569.525 645.747 519.653 675 465.681 675L257.319 675ZM541.448 111.254C525.767 83.7367 496.895 66.8182 465.681 66.8182L257.319 66.8182C226.105 66.8182 197.233 83.7367 181.552 111.254L77.5751 293.709C61.791 321.406 61.791 355.594 77.5751 383.291L181.552 565.746C197.233 593.263 226.105 610.182 257.319 610.182L465.681 610.182C496.895 610.182 525.767 593.263 541.448 565.746L645.425 383.291C661.209 355.594 661.209 321.406 645.425 293.709L541.448 111.254Z" fill="url(#paint1_linear_806_16880)" stroke="url(#paint2_linear_806_16880)" stroke-width="4"/>
<defs>
<linearGradient id="paint0_linear_806_16880" x1="170.553" y1="422.967" x2="199.779" y2="299.42" gradientUnits="userSpaceOnUse">
<stop stop-color="#D8E2F6"/>
<stop offset="0.00971049" stop-color="#DAE3F6"/>
<stop offset="0.1219" stop-color="#EBF0FA"/>
<stop offset="0.2609" stop-color="#F6F9FD"/>
<stop offset="0.4566" stop-color="#FDFEFF"/>
<stop offset="1" stop-color="white"/>
</linearGradient>
<linearGradient id="paint1_linear_806_16880" x1="158" y1="29" x2="563.5" y2="639" gradientUnits="userSpaceOnUse">
<stop stop-color="#1570EF"/>
<stop offset="1" stop-color="#15D5EF"/>
</linearGradient>
<linearGradient id="paint2_linear_806_16880" x1="555.5" y1="52" x2="187.5" y2="673" gradientUnits="userSpaceOnUse">
<stop stop-color="#0487C8"/>
<stop offset="1" stop-color="#05A6F6"/>
</linearGradient>
<clipPath id="clip0_806_16880">
<rect width="489.575" height="500" fill="white" transform="translate(123 69)"/>
</clipPath>
</defs>
</svg>
