<svg width="48" height="48" viewBox="0 0 48 48" fill="none" xmlns="http://www.w3.org/2000/svg">
<path d="M18 44H30C40 44 44 40 44 30V18C44 8 40 4 30 4H18C8 4 4 8 4 18V30C4 40 8 44 18 44Z" stroke="#3366FF" stroke-width="3" stroke-linecap="round" stroke-linejoin="round"/>
<path d="M31.14 37V29.2M31.14 14.9V11M31.14 14.9C31.8229 14.9 32.4991 15.0345 33.13 15.2958C33.7609 15.5572 34.3341 15.9402 34.817 16.423C35.2998 16.9059 35.6829 17.4792 35.9442 18.11C36.2055 18.7409 36.34 19.4171 36.34 20.1C36.34 20.7829 36.2055 21.4591 35.9442 22.09C35.6829 22.7208 35.2998 23.2941 34.817 23.777C34.3341 24.2598 33.7609 24.6428 33.13 24.9042C32.4991 25.1655 31.8229 25.3 31.14 25.3C29.7609 25.3 28.4382 24.7521 27.463 23.777C26.4879 22.8018 25.94 21.4791 25.94 20.1C25.94 18.7209 26.4879 17.3982 27.463 16.423C28.4382 15.4479 29.7609 14.9 31.14 14.9ZM16.86 37V33.1M16.86 33.1C17.5429 33.1 18.2191 32.9655 18.85 32.7042C19.4809 32.4428 20.0541 32.0598 20.537 31.577C21.0198 31.0941 21.4029 30.5208 21.6642 29.89C21.9255 29.2591 22.06 28.5829 22.06 27.9C22.06 27.2171 21.9255 26.5409 21.6642 25.91C21.4029 25.2792 21.0198 24.7059 20.537 24.223C20.0541 23.7402 19.4809 23.3572 18.85 23.0958C18.2191 22.8345 17.5429 22.7 16.86 22.7C15.4809 22.7 14.1582 23.2479 13.183 24.223C12.2079 25.1982 11.66 26.5209 11.66 27.9C11.66 29.2791 12.2079 30.6018 13.183 31.577C14.1582 32.5521 15.4809 33.1 16.86 33.1ZM16.86 18.8V11" stroke="#99B2FF" stroke-width="3" stroke-miterlimit="10" stroke-linecap="round" stroke-linejoin="round"/>
</svg>
