<svg width="48" height="48" viewBox="0 0 48 48" fill="none" xmlns="http://www.w3.org/2000/svg">
<path d="M26.02 5.83965L37.82 11.0796C41.22 12.5796 41.22 15.0596 37.82 16.5596L26.02 21.7996C24.68 22.3996 22.48 22.3996 21.14 21.7996L9.34001 16.5596C5.94001 15.0596 5.94001 12.5796 9.34001 11.0796L21.14 5.83965C22.48 5.23965 24.68 5.23965 26.02 5.83965Z" stroke="#7093FF" stroke-width="3" stroke-linecap="round" stroke-linejoin="round"/>
<path d="M6 22C6 23.68 7.26 25.62 8.8 26.3L22.38 32.34C23.42 32.8 24.6 32.8 25.62 32.34L39.2 26.3C40.74 25.62 42 23.68 42 22" stroke="#4775FF" stroke-width="3" stroke-linecap="round" stroke-linejoin="round"/>
<path d="M6 32C6 33.86 7.1 35.54 8.8 36.3L22.38 42.34C23.42 42.8 24.6 42.8 25.62 42.34L39.2 36.3C40.9 35.54 42 33.86 42 32" stroke="#2347B2" stroke-width="3" stroke-linecap="round" stroke-linejoin="round"/>
</svg>
